<?xml version="1.0" encoding="utf-8"?>
<!-- Generator: Adobe Illustrator 21.0.0, SVG Export Plug-In . SVG Version: 6.00 Build 0)  -->
<svg version="1.1" id="Layer_1" xmlns="http://www.w3.org/2000/svg" xmlns:xlink="http://www.w3.org/1999/xlink" x="0px" y="0px"
	 viewBox="0 0 188 83" style="enable-background:new 0 0 188 83;" xml:space="preserve">
<style type="text/css">
	.st0{fill:#7F8083;}
	.st1{fill:#B42036;}
	.st2{fill:#A4CD3A;}
	.st3{fill:#CA5B29;}
	.st4{fill:#ED8723;}
	.st5{fill:#F6D13E;}
	.st6{fill:#688D8A;}
	.st7{fill:#A52156;}
	.st8{fill:#C4CF30;}
	.st9{fill:#848271;}
	.st10{fill:#EED673;}
	.st11{fill:#A52256;}
	.st12{fill:#415761;}
	.st13{fill:none;stroke:#999999;stroke-miterlimit:10;}
	.st14{fill:#A51F55;}
	.st15{fill:#575656;}
</style>
<g>
	<path class="st0" d="M26.6,38.9c0,1.2-0.1,2.4,0.1,3.6c0.1,1.2,0.4,2.5,1.1,3.5c0.3,0.4,0.3,0.4,0.6,0c0.7-1.2,1.5-2.3,2.2-3.5l0,0
		c0,0.9-0.3,1.7-0.7,2.5c-0.3,0.7-0.7,1.4-1.2,2.1c-0.4,0.6-0.5,1.3-0.3,2c0.3,1,0.7,1.9,1.4,2.8c0.8,1,2.4,1.1,3.3,0.3
		c0.4-0.4,0.8-0.8,1.1-1.3c0.8-1.2,1.7-2.3,2.2-3.7c0.3-0.7,0.5-1.4,0.7-2.2c0.2,0.6,0.2,1.2,0.1,1.7c-0.2,0.9-0.4,1.8-0.7,2.7
		c0,0.2-0.1,0.3-0.1,0.5c1.1-0.3,2-0.8,3.1-1.3c-0.2,0.6-0.6,0.9-1,1.2c-0.6,0.4-1.3,0.7-2,1c-0.6,0.3-1.2,0.8-1.6,1.3
		c-0.3,0.5-0.5,0.9-0.5,1.5c0.1,1.4,0.1,2.8,0.2,4.2c0.1,2.5,1.1,4.7,2.4,6.7c0.3,0.5,0.6,1,0.9,1.5c0.2,0.2,0.1,0.3-0.1,0.5
		c-1,0.7-2.1,1.1-3.3,1.2c-1.8,0.2-3.5-0.2-5.2-0.5c-1.1-0.3-2.2-0.3-3.4-0.1c-0.3,0-0.3,0-0.3-0.3c0.4-1.5,1.1-3,1.7-4.4
		c0.7-1.7,1.2-3.4,1.4-5.3c0.1-1.6,0-3.2-1-4.7c-0.6-0.9-1.4-1.5-2.1-2.3c-0.9-0.9-1.6-1.8-2.1-3c0-0.1-0.1-0.2-0.1-0.4
		c0.3,0.1,0.6,0.3,0.7,0.5c0.3,0.4,0.5,0.7,0.7,1.1c0.4,0.5,0.9,0.9,1.6,0.9c0.2,0,0.3-0.1,0.2-0.3c-0.3-1.9-0.5-3.7-0.6-5.6
		c0-1.2,0-2.5,0.3-3.7C26.4,39.3,26.5,39.1,26.6,38.9L26.6,38.9z"/>
	<path class="st1" d="M31.2,17.2c-0.2,0.9-0.8,1.6-1.2,2.4c-1.6,2.3-2.7,4.9-3.2,7.6c-0.1,0.5-0.2,1.1-0.3,1.6c0,0.1,0,0.3-0.1,0.4
		c-0.4-0.3-0.7-0.7-1-1.1c-1.5-2.2-2.6-4.6-3.2-7.2c-0.1-0.3-0.1-0.7-0.1-1c0-0.6,0.2-1,0.8-1.3c0.7-0.4,1.6-0.6,2.4-0.8
		c1.9-0.4,3.9-0.6,5.8-0.7C31.1,17.2,31.1,17.2,31.2,17.2L31.2,17.2z"/>
	<path class="st2" d="M18.9,43.1c0-1.8,0.3-3.4,1-4.9c0.2-0.5,0.5-0.9,0.9-1.4c0.2-0.2,0.4-0.4,0.7-0.4c0.5,0,1,0,1.5,0
		c0.2,0,0.1,0.1,0.1,0.2c-0.3,0.7-0.3,1.4-0.3,2.2c0.1,1.2,0.5,2.4,0.9,3.5c0.3,0.7,0.6,1.5,1,2.2c0.1,0.3,0.1,0.4-0.2,0.5
		c-0.9,0.3-1.8,0.5-2.6,0.7c-0.8,0.2-1.7,0.4-2.4,0.8c-0.1,0.1-0.2,0.1-0.2-0.1C19.2,45.4,18.9,44.2,18.9,43.1z"/>
	<path class="st3" d="M43,44.9c0.3-0.9,0.7-1.7,1.1-2.4c0.5-1.1,0.7-2.2,0.8-3.4c0-0.4,0-0.9,0.1-1.3c0-0.2,0.1-0.3,0.2-0.3
		c1.3-0.5,2.5-1,3.8-1.5c0.1,0,0.2-0.1,0.3,0.1c0.4,1.6,0.7,3.3,0.4,5c-0.2,1.9-1.3,3-3.1,3.5C45.4,44.7,44.3,44.8,43,44.9z"/>
	<path class="st4" d="M11.4,39.5c1.6,0,2.7,0.7,3.5,1.8c0.8,1.2,1.2,2.5,1.5,3.8c0.1,0.3-0.1,0.2-0.3,0.2c-0.8-0.2-1.6-0.4-2.4-0.5
		c-0.8-0.1-1.6-0.1-2.3,0c-0.6,0.1-1.3,0.1-1.9,0.2c-0.1,0-0.2,0-0.3-0.1c-0.4-0.8-0.9-1.4-1.4-2.1c-0.3-0.4-0.6-0.9-0.8-1.4
		c0-0.1-0.1-0.2,0-0.3C8.4,40.2,9.8,39.5,11.4,39.5C11.5,39.5,11.5,39.5,11.4,39.5z"/>
	<path class="st5" d="M26.5,33.2c0.1-2,1-3.6,2.6-4.8c0.2-0.1,0.3-0.1,0.3,0.1c0.2,0.5,0.3,0.9,0.4,1.4c0.3,1.5,0.9,2.7,1.9,3.8
		c0.2,0.2,0.3,0.5,0.5,0.7c0.3,0.3,0.3,0.6,0.2,1c-0.4,1.2-1,2.4-1.6,3.5c-0.1,0.1-0.2,0.2-0.3,0.1c-1.9-1.1-3.4-2.4-3.9-4.6
		C26.6,34,26.5,33.6,26.5,33.2z"/>
	<path class="st4" d="M44.5,20.2c0.3,0,0.6-0.1,0.8,0.1c0.2,0.2,0.1,0.5,0.1,0.7c0.1,1.1,0.1,2.2,0.2,3.3c0,0.6-0.4,1.1-0.9,1.2
		c-0.8,0.2-1.5,0.5-2.2,0.8c-0.4,0.2-0.9,0.4-1.4,0.6c-0.2,0.1-0.3,0.1-0.3-0.2c-0.1-1.2-0.8-2-1.7-2.6c-0.5-0.4-0.7-0.9-0.9-1.4
		c-0.1-0.1,0-0.2,0.1-0.2c1.5-1,3.1-1.9,4.9-2.2C43.7,20.2,44.1,20.2,44.5,20.2z"/>
	<path class="st6" d="M40.4,31.5c-0.5-0.3-0.9-0.7-1.2-1.1c-0.8-1-1.9-1.3-3.1-1.3c-0.5,0-0.9,0-1.4,0c-0.2,0-0.3,0-0.4-0.2
		c-0.6-1.2-1.3-2.4-2.2-3.4c-0.1-0.1-0.2-0.2,0-0.3c2.4-0.6,4.7-0.6,6.8,0.8c1.4,0.9,1.9,2.3,1.8,4C40.7,30.4,40.6,30.9,40.4,31.5z"
		/>
	<path class="st5" d="M11.5,52.2c-1.4,0-2.4-0.8-2.9-2.2c-0.2-0.8-0.2-0.8,0.4-1.2c1.1-0.8,2.4-1.5,3.6-2.2c0.2-0.1,0.3-0.1,0.4,0.1
		c0.5,0.8,1.2,1.3,2,1.5c0.3,0.1,0.6,0.3,1,0.5c0.2,0.1,0.2,0.2,0.2,0.4c-0.2,0.5-0.5,1-0.9,1.3C14.2,51.5,12.9,52.1,11.5,52.2z"/>
	<path class="st6" d="M54.1,41.4c0.1-1,0.3-1.9,0.4-2.9c0.2-1.7,0.2-3.4,0.1-5c0-0.5,0-1,0-1.6c0.6,0.3,1.2,0.6,1.8,1
		c1.8,1.2,2.4,2.9,2.3,4.9c0,0.5-0.4,0.8-0.7,1.1c-0.6,0.7-1.4,1.2-2.2,1.6C55.3,40.8,54.7,41.2,54.1,41.4L54.1,41.4z"/>
	<path class="st7" d="M18.4,28.8c-1.7,1.7-3.3,3.5-5.9,3.8c-1.1,0.1-2.2,0.2-3.2,0.1c-0.1,0-0.2,0-0.2-0.1c-0.3-0.7-0.6-1.3-0.9-2
		c0.8,0,1.5,0,2.2-0.1c1.4-0.1,2.5-0.8,3-2.1c0.1-0.3,0.2-0.4,0.6-0.3C15.4,28.3,16.9,28.6,18.4,28.8z"/>
	<path class="st7" d="M41.2,46.7c2.9-0.2,5.5,0.4,7.5,2.6c0.3,0.4,0.7,0.7,1.1,1.1c0.1,0.1,0.2,0.2,0.2,0.3
		c-0.1,0.7-0.1,1.5-0.1,2.2c0,0.2-0.1,0.2-0.2,0.1c-0.5-0.3-0.9-0.6-1.2-1c-0.6-1-1.5-1.3-2.6-1.3c-0.6,0-1.3,0-1.9,0.1
		c-0.2,0-0.3,0-0.4-0.2c-0.2-0.9-0.7-1.6-1.4-2.3C41.8,47.8,41.4,47.3,41.2,46.7z"/>
	<path class="st5" d="M38.5,38.8c0-0.4,0.1-0.9,0.2-1.4C39,36.2,40.1,36,41,36c0.2,0,0.2,0.2,0.2,0.3c0.3,1.4,0.6,2.7,1.1,4.1
		c0.3,0.7,0.3,0.8-0.4,1.2c-0.9,0.5-1.4,1.3-1.9,2.2c-0.1,0.1-0.2,0.4-0.3,0.4c-0.2,0-0.3-0.2-0.4-0.4c-0.4-0.6-0.4-1.4-0.5-2.1
		C38.6,40.7,38.5,39.8,38.5,38.8z"/>
	<path class="st8" d="M43.2,34.4c0-1.3,0.3-2.5,0.7-3.6c0.3-0.9,0.5-1.8,0.9-2.6c0.3-0.6,0.7-1,1.4-1c0.5,0,0.9,0,1.4,0
		c0.2,0,0.3,0.1,0.2,0.3c-0.2,1.7-0.4,3.4-0.6,5.1c0,0.3-0.2,0.3-0.4,0.3c-0.4,0.1-0.7,0.1-1.1,0.2c-0.5,0.1-1,0.4-1.4,0.7
		C44,34,43.6,34.2,43.2,34.4z"/>
	<path class="st8" d="M20,21.6c0,0.1-0.1,0.3-0.2,0.4c-0.6,0.6-1.2,1.2-1.5,1.9C18.2,24,18.1,24,18,24c-0.9-0.4-1.8-0.8-2.7-1.2
		c-0.2-0.1-0.1-0.2-0.1-0.3c0.2-1.3,1-2.3,2.1-3c0.3-0.2,0.7-0.4,1-0.6c0.2-0.1,0.4-0.1,0.6,0.1C19.6,19.6,19.8,20.6,20,21.6z"/>
	<path class="st9" d="M23.6,54.1c-0.9-0.1-1.8-0.3-2.6-0.9c-1.3-1-1.5-2.5-0.6-3.9c0.4-0.6,0.4-0.6,0.9-0.1c0.5,0.5,1.1,1,1.5,1.6
		c0.7,0.9,1,2,1.1,3.1C24,54.3,23.8,54.1,23.6,54.1z"/>
	<path class="st2" d="M28.1,14.3c0.6-0.8,1.4-1.4,2.3-1.9c0.7-0.4,1.4-0.7,2.2-0.9c0.2-0.1,0.3,0,0.5,0.2c1,1.5,1.3,2.2,1.5,3.2
		c-0.1,0.1-0.2,0-0.3,0c-0.8-0.3-1.6-0.5-2.5-0.8c-1.1-0.3-2.2-0.3-3.3,0.1C28.4,14.3,28.3,14.4,28.1,14.3L28.1,14.3z"/>
	<path class="st10" d="M53,28.9c0,0.1,0,0.2-0.1,0.4c-0.3,0.9-0.3,0.9-1.1,0.3c-0.1,0-0.1-0.1-0.2-0.2c-0.5-0.9-1.2-1.5-1.9-2.2
		c-0.3-0.3-0.4-0.6-0.4-1c0-0.4,0-0.9,0-1.3c0-0.3,0.2-0.2,0.3-0.1c1.1,0.2,1.9,0.8,2.5,1.8c0.3,0.5,0.7,1,0.9,1.5
		C53,28.3,53,28.5,53,28.9z"/>
	<path class="st6" d="M18.3,36.7c0,0.2-0.1,0.5-0.1,0.7c0,0.6-0.3,0.8-0.7,1c-0.4,0.1-0.8,0.3-1.2,0.5c-0.2,0.1-0.3,0.1-0.3-0.2
		c0.1-0.8,0.1-1.7,0-2.5c-0.1-0.5,0.1-0.9,0.5-1.1c0.3-0.2,0.7-0.4,1-0.6c0.1-0.1,0.2-0.1,0.2,0.1C18.1,35.3,18.3,36,18.3,36.7z"/>
	<path class="st6" d="M49,46c0.8,0.2,1.5,0.4,2.2,0.7c1,0.3,1.3,1.2,1.3,2.1c0,0.2-0.1,0.2-0.2,0.2c-0.6,0.1-1.2,0.1-1.9-0.1
		c-0.6-0.1-0.9-0.5-1.1-1C49.1,47.3,49.1,46.7,49,46z"/>
	<path class="st11" d="M36.1,31c0.3,0.4,0.6,0.8,0.9,1.2c0.6,0.9,0.8,1.9,0.6,3c0,0.1-0.1,0.2-0.2,0.1c-0.8-0.3-1.5-0.6-2-1.3
		c-0.3-0.5-0.4-1-0.3-1.6C35.3,31.9,35.7,31.4,36.1,31z"/>
	<path class="st11" d="M40.4,18.2c-0.4-0.4-0.9-0.8-1.3-1.3c-0.2-0.2-0.5-0.5-0.8-0.7c-0.3-0.2-0.5-0.5-0.4-0.9
		c0.1-0.4,0.1-0.8,0.2-1.2c0-0.2,0.1-0.2,0.2-0.2c1,0.2,1.8,0.6,2.3,1.5c0.1,0.1,0.1,0.2,0.1,0.3C40.7,16.6,40.6,17.4,40.4,18.2z"/>
	<path class="st11" d="M52.7,36.6c-0.7-0.8-1.5-1.5-2.2-2.1c-0.2-0.2-0.3-0.4-0.3-0.6c0.1-0.5,0.1-0.9,0.2-1.4
		c0-0.2,0.1-0.2,0.2-0.2c1,0.2,1.8,0.7,2.3,1.5c0,0.1,0.1,0.1,0.1,0.2C52.9,34.9,52.8,35.7,52.7,36.6z"/>
	<path class="st8" d="M34,39.5c0.2,0,0.5,0,0.7,0c1.3,0.2,1.7,0.9,1.9,2.2c0.1,0.7,0.1,0.7-0.6,0.5c-0.5-0.1-1-0.3-1.5-0.5
		c-0.8-0.4-1.2-1-1.3-2c0-0.3,0.1-0.4,0.4-0.3C33.7,39.5,33.9,39.5,34,39.5C34,39.5,34,39.5,34,39.5z"/>
	<path class="st5" d="M10.4,36.6c-0.3,0-0.7-0.1-1.1-0.2c-0.2,0-0.2-0.2-0.2-0.3c0.4-1.5,0.8-1.7,2.2-2.1c0.1,0,0.2,0,0.3,0.1
		c0.4,0.3,0.9,0.5,1.3,0.8c0.1,0.1,0.2,0.1,0.1,0.3c-0.7,0.7-1.3,1.4-2.4,1.5C10.6,36.6,10.5,36.6,10.4,36.6z"/>
	<path class="st12" d="M53.7,41.9c-0.5,0.7-0.9,1.4-1.3,2c0,0.1-0.1,0.1-0.2,0.1c-0.5,0.1-1,0.1-1.5-0.1c-0.5-0.2-0.6-0.6-0.1-1
		c0.5-0.5,1.1-0.7,1.8-0.8C52.8,42.1,53.2,42,53.7,41.9z"/>
	<path class="st0" d="M26.6,38.9C26.6,38.9,26.6,38.9,26.6,38.9C26.6,38.9,26.6,38.9,26.6,38.9L26.6,38.9z"/>
	<polygon class="st6" points="54.1,41.4 54.1,41.4 54.1,41.4 	"/>
	<polygon class="st0" points="30.5,42.5 30.5,42.5 30.5,42.5 	"/>
	<polygon class="st1" points="31.2,17.2 31.2,17.2 31.2,17.2 	"/>
	<path class="st2" d="M28.1,14.3C28.1,14.4,28.1,14.4,28.1,14.3C28,14.3,28.1,14.4,28.1,14.3L28.1,14.3z"/>
	<line class="st13" x1="70.1" y1="21.5" x2="70.1" y2="66.7"/>
	<g>
		<path class="st14" d="M80.4,21.7c-0.4-1-0.7-1.2-1.3-1.4c-0.3-0.1-0.6-0.1-0.7-0.1c-0.1,0-0.1-0.1-0.1-0.1c0-0.1,0.2-0.1,0.5-0.1
			c0.9,0,1.9,0.1,2.1,0.1c0.2,0,1-0.1,1.7-0.1c0.3,0,0.5,0,0.5,0.1s-0.1,0.1-0.2,0.1c-0.2,0-0.5,0-0.7,0.1c-0.2,0.1-0.2,0.2-0.2,0.4
			c0,0.2,0.2,0.7,0.4,1.2l3.8,9.9c1.1-2.5,3.6-9,4-10.3c0.1-0.3,0.2-0.5,0.2-0.7c0-0.1-0.1-0.3-0.2-0.4c-0.2-0.1-0.5-0.1-0.7-0.1
			c-0.1,0-0.2,0-0.2-0.1c0-0.1,0.1-0.1,0.4-0.1c0.7,0,1.6,0.1,1.8,0.1c0.1,0,0.9-0.1,1.5-0.1c0.2,0,0.3,0,0.3,0.1s-0.1,0.1-0.2,0.1
			c-0.1,0-0.5,0-0.9,0.2c-0.2,0.2-0.5,0.5-1,1.8c-0.2,0.5-1.1,2.8-2.1,5.1c-1.1,2.7-2,4.7-2.4,5.6c-0.5,1.1-0.6,1.4-0.8,1.4
			c-0.2,0-0.3-0.3-0.7-1.2L80.4,21.7z"/>
		<path class="st14" d="M95.4,26.6c0-2.4,0-2.9,0-3.4c0-0.5-0.2-0.8-0.7-0.9c-0.1,0-0.3,0-0.4,0c-0.1,0-0.2-0.1-0.2-0.1
			c0-0.1,0.1-0.1,0.3-0.1c0.4,0,0.9,0,1.9,0.1c0.1,0,3.4,0,3.8,0c0.4,0,0.6,0,0.7-0.1c0.1,0,0.1-0.1,0.2-0.1c0,0,0.1,0,0.1,0.1
			c0,0.1-0.1,0.4-0.1,0.8c0,0.3,0,0.6-0.1,1c0,0.2,0,0.3-0.1,0.3c-0.1,0-0.1-0.1-0.1-0.2c0-0.3-0.1-0.5-0.1-0.6
			c-0.1-0.4-0.3-0.5-1.2-0.6c-0.2,0-2.1,0-2.1,0c-0.1,0-0.1,0-0.1,0.1v4.2c0,0.1,0,0.2,0.1,0.2c0.2,0,2.1,0,2.5-0.1
			c0.4,0,0.7-0.1,0.9-0.3c0.1-0.1,0.1-0.1,0.2-0.1c0,0,0.1,0,0.1,0.1s-0.1,0.4-0.1,1c-0.1,0.5-0.1,0.9-0.1,1.1
			c0,0.1-0.1,0.2-0.1,0.2c-0.1,0-0.1-0.1-0.1-0.2c0-0.1,0-0.3-0.1-0.4c-0.1-0.2-0.2-0.5-0.9-0.6c-0.4,0-1.9-0.1-2.2-0.1
			c-0.1,0-0.1,0.1-0.1,0.1v1.4c0,0.6,0,2.2,0,2.5c0,0.7,0.1,1,0.5,1.2c0.3,0.1,0.7,0.2,1.4,0.2c0.4,0,1,0,1.4-0.1
			c0.6-0.2,0.7-0.5,0.8-1.2c0-0.2,0.1-0.3,0.2-0.3c0.1,0,0.1,0.2,0.1,0.3c0,0.1-0.1,1.3-0.2,1.6c-0.1,0.4-0.2,0.4-0.8,0.4
			c-1.2,0-1.8,0-2.4,0c-0.7,0-1.5-0.1-2.2-0.1c-0.4,0-0.8,0.1-1.2,0.1c-0.2,0-0.3,0-0.3-0.1c0-0.1,0.1-0.1,0.2-0.1
			c0.1,0,0.2,0,0.4-0.1c0.3-0.1,0.6-0.3,0.6-1.5c0-0.6,0-1.4,0-2.8V26.6z"/>
		<path class="st14" d="M106.6,29.4c0,2.1,0.1,3.2,0.4,3.5c0.3,0.3,0.7,0.4,2,0.4c0.8,0,1.6,0,2-0.5c0.2-0.3,0.3-0.7,0.4-0.9
			c0-0.1,0.1-0.2,0.1-0.2c0.1,0,0.1,0.1,0.1,0.2s-0.1,1.2-0.2,1.7c-0.1,0.4-0.1,0.5-1,0.5c-1.3,0-2.7-0.1-4.5-0.1
			c-0.6,0-1,0.1-1.6,0.1c-0.2,0-0.3,0-0.3-0.1c0-0.1,0.1-0.1,0.2-0.1c0.1,0,0.3,0,0.4,0c0.3-0.1,0.4-0.4,0.5-0.9
			c0.1-0.7,0.1-2,0.1-3.4v-2.8c0-2.5,0-2.9,0-3.4c0-0.5-0.1-0.9-0.7-0.9c-0.1,0-0.3,0-0.5,0c-0.1,0-0.2-0.1-0.2-0.1
			c0-0.1,0.1-0.1,0.3-0.1c0.8,0,1.9,0.1,1.9,0.1c0.3,0,1.4-0.1,1.9-0.1c0.2,0,0.2,0.1,0.2,0.1c0,0.1-0.1,0.1-0.2,0.1
			c-0.1,0-0.3,0-0.5,0c-0.5,0.1-0.6,0.4-0.7,0.9c0,0.5,0,0.9,0,3.4V29.4z"/>
		<path class="st14" d="M117,29.4c-0.1,0-0.1,0.1-0.2,0.1l-0.8,2.3c-0.2,0.5-0.3,1-0.3,1.3c0,0.3,0.2,0.5,0.6,0.5c0.1,0,0.1,0,0.1,0
			c0.2,0,0.2,0.1,0.2,0.1c0,0.1-0.1,0.1-0.3,0.1c-0.4,0-1.3-0.1-1.5-0.1c-0.2,0-1,0.1-1.8,0.1c-0.2,0-0.3,0-0.3-0.1
			c0-0.1,0.1-0.1,0.2-0.1c0.1,0,0.3,0,0.4,0c0.8-0.1,1.1-0.7,1.4-1.5l3.7-9.8c0.2-0.5,0.3-0.6,0.4-0.6c0.1,0,0.2,0.1,0.4,0.6
			c0.3,0.6,2.8,7.1,3.8,9.5c0.6,1.5,1.2,1.7,1.4,1.8c0.2,0.1,0.5,0.1,0.6,0.1c0.1,0,0.2,0,0.2,0.1s-0.1,0.1-0.3,0.1
			c-0.2,0-1.6,0-2.8,0c-0.4,0-0.5,0-0.5-0.1c0-0.1,0.1-0.1,0.1-0.1c0.1,0,0.2-0.1,0.1-0.4l-1.5-3.7c0-0.1-0.1-0.1-0.1-0.1H117z
			 M120.1,28.8c0.1,0,0.1-0.1,0.1-0.1l-1.5-4.1c-0.1-0.3-0.1-0.3-0.2,0l-1.4,4.1c0,0.1,0,0.1,0,0.1H120.1z"/>
		<path class="st14" d="M140.3,31.9c0.1,0.4,0.2,1.5,0.9,1.7c0.3,0.1,0.7,0.1,1,0.1c0.1,0,0.2,0,0.2,0.1s-0.1,0.1-0.3,0.1
			c-0.3,0-2.3-0.1-2.9-0.1c-0.4,0-0.6-0.1-0.6-0.2c0-0.1,0.1-0.1,0.2-0.2c0.1,0,0.1-0.3,0.1-0.5l-0.8-8l-4,8
			c-0.4,0.7-0.4,0.9-0.6,0.9c-0.1,0-0.2-0.2-0.6-0.8c-0.3-0.5-1.8-3.5-1.9-3.7c-0.1-0.2-1.9-3.8-2.1-4.2l-0.7,7.2c0,0.3,0,0.4,0,0.7
			c0,0.2,0.1,0.5,0.5,0.6c0.2,0,0.3,0,0.5,0.1c0.1,0,0.2,0.1,0.2,0.1c0,0.1-0.1,0.1-0.3,0.1c-0.6,0-1.4-0.1-1.5-0.1
			c-0.2,0-1,0.1-1.4,0.1c-0.2,0-0.3,0-0.3-0.1c0,0,0.1-0.1,0.2-0.1c0.1,0,0.1,0,0.4,0c0.4,0,0.6-0.5,0.7-1.2l1.3-10.2
			c0-0.3,0.1-0.5,0.2-0.5c0.1,0,0.1,0.1,0.3,0.3l5,9.7l4.8-9.7c0.1-0.2,0.2-0.3,0.3-0.3c0.1,0,0.2,0.2,0.2,0.5L140.3,31.9z"/>
		<path class="st14" d="M157.5,31.9c0.1,0.4,0.2,1.5,0.9,1.7c0.3,0.1,0.7,0.1,1,0.1c0.1,0,0.2,0,0.2,0.1s-0.1,0.1-0.3,0.1
			c-0.3,0-2.3-0.1-2.9-0.1c-0.4,0-0.6-0.1-0.6-0.2c0-0.1,0.1-0.1,0.2-0.2c0.1,0,0.1-0.3,0.1-0.5l-0.8-8l-4,8
			c-0.4,0.7-0.4,0.9-0.6,0.9c-0.1,0-0.2-0.2-0.6-0.8c-0.3-0.5-1.8-3.5-1.9-3.7c-0.1-0.2-1.9-3.8-2.1-4.2l-0.7,7.2c0,0.3,0,0.4,0,0.7
			c0,0.2,0.1,0.5,0.5,0.6c0.2,0,0.3,0,0.5,0.1c0.1,0,0.2,0.1,0.2,0.1c0,0.1-0.1,0.1-0.3,0.1c-0.6,0-1.4-0.1-1.5-0.1
			c-0.2,0-1,0.1-1.4,0.1c-0.2,0-0.3,0-0.3-0.1c0,0,0.1-0.1,0.2-0.1c0.1,0,0.1,0,0.4,0c0.4,0,0.6-0.5,0.7-1.2l1.3-10.2
			c0-0.3,0.1-0.5,0.2-0.5c0.1,0,0.1,0.1,0.3,0.3l5,9.7l4.8-9.7c0.1-0.2,0.2-0.3,0.3-0.3c0.1,0,0.2,0.2,0.2,0.5L157.5,31.9z"/>
		<path class="st14" d="M163.4,29.4c-0.1,0-0.1,0.1-0.2,0.1l-0.8,2.3c-0.2,0.5-0.3,1-0.3,1.3c0,0.3,0.2,0.5,0.6,0.5
			c0.1,0,0.1,0,0.1,0c0.2,0,0.2,0.1,0.2,0.1c0,0.1-0.1,0.1-0.3,0.1c-0.4,0-1.3-0.1-1.5-0.1c-0.2,0-1,0.1-1.8,0.1
			c-0.2,0-0.3,0-0.3-0.1c0-0.1,0.1-0.1,0.2-0.1c0.1,0,0.3,0,0.4,0c0.8-0.1,1.1-0.7,1.4-1.5l3.7-9.8c0.2-0.5,0.3-0.6,0.4-0.6
			c0.1,0,0.2,0.1,0.4,0.6c0.3,0.6,2.8,7.1,3.8,9.5c0.6,1.5,1.2,1.7,1.4,1.8c0.2,0.1,0.5,0.1,0.6,0.1c0.1,0,0.2,0,0.2,0.1
			s-0.1,0.1-0.3,0.1c-0.2,0-1.6,0-2.8,0c-0.4,0-0.5,0-0.5-0.1c0-0.1,0.1-0.1,0.1-0.1c0.1,0,0.2-0.1,0.1-0.4l-1.5-3.7
			c0-0.1-0.1-0.1-0.1-0.1H163.4z M166.6,28.8c0.1,0,0.1-0.1,0.1-0.1l-1.5-4.1c-0.1-0.3-0.1-0.3-0.2,0l-1.4,4.1c0,0.1,0,0.1,0,0.1
			H166.6z"/>
		<path class="st14" d="M175.6,29.4c0,2.1,0.1,3.2,0.4,3.5c0.3,0.3,0.7,0.4,2,0.4c0.8,0,1.6,0,2-0.5c0.2-0.3,0.3-0.7,0.4-0.9
			c0-0.1,0.1-0.2,0.1-0.2c0.1,0,0.1,0.1,0.1,0.2s-0.1,1.2-0.2,1.7c-0.1,0.4-0.1,0.5-1,0.5c-1.3,0-2.7-0.1-4.5-0.1
			c-0.6,0-1,0.1-1.6,0.1c-0.2,0-0.3,0-0.3-0.1c0-0.1,0.1-0.1,0.2-0.1c0.1,0,0.3,0,0.4,0c0.3-0.1,0.4-0.4,0.5-0.9
			c0.1-0.7,0.1-2,0.1-3.4v-2.8c0-2.5,0-2.9,0-3.4c0-0.5-0.1-0.9-0.7-0.9c-0.1,0-0.3,0-0.5,0c-0.1,0-0.2-0.1-0.2-0.1
			c0-0.1,0.1-0.1,0.3-0.1c0.8,0,1.9,0.1,1.9,0.1c0.3,0,1.4-0.1,1.9-0.1c0.2,0,0.2,0.1,0.2,0.1c0,0.1-0.1,0.1-0.2,0.1
			c-0.1,0-0.3,0-0.5,0c-0.5,0.1-0.6,0.4-0.7,0.9c0,0.5,0,0.9,0,3.4V29.4z"/>
	</g>
	<g>
		<path class="st15" d="M80.1,41.2l0-0.4c0.8,0,1.3,0,1.7-0.1c0.1,0,0.2,0,0.3,0c0,0,0.1,0,0.2,0c0.2,0.2,0.4,0.4,0.6,0.6
			c0,0,0.1,0.1,0.1,0.1l1.6,1.7l0.2,0.3c0.3,0.4,0.6,0.7,0.9,0.9s0.8,0.8,1.5,1.6l1.8,1.9c0.2,0.2,0.4,0.4,0.7,0.7l0-0.1
			c0-0.7,0-1,0-1.1l0-0.4l0-0.7v-0.3c0-0.2,0-0.8-0.1-1.9c0-0.1,0-0.4-0.1-0.8c0-0.4-0.1-0.7-0.1-1c0-0.5,0-0.9-0.1-0.9
			c0-0.1-0.3-0.1-0.6-0.2c-0.1,0-0.2,0-0.4,0c-0.2,0-0.4,0-0.4,0s-0.1-0.1-0.1-0.1c0-0.1,0-0.2,0.1-0.2c0.1,0,0.3-0.1,0.4-0.1
			c0.1,0,0.3,0,0.5,0.1c0.2,0,0.4,0.1,0.5,0.1c0.2,0,0.6,0,1.1,0c0.3,0,0.5,0,0.6,0h0.1l0,0.2c-0.1,0-0.2,0.1-0.3,0.1
			c-0.1,0-0.3,0-0.4,0.1c-0.2,0.1-0.3,0.1-0.3,0.1c-0.1,0.1-0.2,0.3-0.2,0.4l0.1,2.3l0.1,1.1l0,0.3l0,1.5c0,1,0,1.9,0,2.6
			c0,0.2,0,0.5,0,1.1l-0.3,0c-0.2-0.2-0.8-0.8-1.8-1.9c-0.2-0.2-0.4-0.4-0.5-0.5l-0.6-0.7c-0.2-0.3-0.4-0.4-0.5-0.5
			c-0.1-0.1-0.1-0.1-0.2-0.2c-0.5-0.6-1.2-1.4-2.1-2.3c-0.2-0.2-0.6-0.6-1-1.1c-0.3-0.3-0.5-0.5-0.5-0.6c-0.1-0.1-0.2-0.2-0.3-0.3
			l0,0.3c0,1,0,2.3,0.1,4l0.1,2.4c0,0.2,0,0.4,0,0.6l0.3,0.1c0.5,0,0.9,0.1,1.4,0.2c0,0,0.1,0.1,0.1,0.1l0,0.3c-0.1,0-0.1,0-0.2,0
			c-0.1,0-0.1,0-0.2,0c-0.5,0-1.1-0.1-1.8-0.1c-0.5,0-0.9,0-1.3,0l-0.1,0c0,0-0.1,0-0.2,0l0-0.2l0.2-0.1l0.3-0.1
			c0.3,0,0.5-0.1,0.7-0.1c0.1,0,0.2-0.1,0.2-0.2c0.1-0.3,0.1-0.8,0.1-1.5c0-0.3,0-0.9,0-1.7v-1l0-2.1c0-0.9,0-1.5-0.1-1.6
			c0-0.1-0.1-0.2-0.2-0.2c-0.2-0.1-0.4-0.2-0.7-0.3C80.4,41.3,80.2,41.2,80.1,41.2z"/>
		<path class="st15" d="M97.3,46.3l-2.9,0h-0.6c-0.2,0-0.5,0-0.7,0c0,0.1-0.1,0.2-0.1,0.3l0,0.1v0.1l0,0.4c0,0.3,0.1,0.7,0.3,1.1
			s0.5,0.8,0.8,1c0.4,0.2,0.8,0.3,1.3,0.4c0.3,0,0.5,0,0.7-0.1c0.2-0.1,0.4-0.2,0.7-0.4l0.5-0.4l0,0.3c0,0,0,0.1,0,0.1
			c-0.2,0.3-0.5,0.5-0.8,0.7c-0.3,0.2-0.7,0.4-1,0.5c-0.2,0-0.4,0.1-0.8,0.1c-0.3,0-0.7-0.1-1-0.2c-0.5-0.2-0.9-0.6-1.2-1
			c-0.3-0.5-0.4-1.1-0.4-1.7c0-0.2,0-0.5,0.1-0.8s0.2-0.7,0.4-1.1c0.1-0.3,0.3-0.5,0.5-0.6c0.3-0.2,0.6-0.4,0.8-0.5
			c0.3-0.1,0.7-0.2,1.1-0.2c0.5,0,0.8,0.1,1.1,0.3c0.4,0.2,0.7,0.5,0.9,0.9c0.2,0.3,0.3,0.7,0.3,1V46.3z M93.2,46h0.3
			c0.3,0,1,0,2.2-0.1c0.2,0,0.3,0,0.4-0.1c0.1-0.1,0.1-0.2,0.1-0.3c0-0.2,0-0.3-0.1-0.5c-0.1-0.2-0.2-0.3-0.5-0.4
			c-0.2-0.1-0.4-0.2-0.7-0.2c-0.6,0-1,0.2-1.4,0.6C93.4,45.5,93.2,45.8,93.2,46z"/>
		<path class="st15" d="M97.6,44.4l2.8,0c0.1,0,0.1,0,0.1,0s0,0,0,0.1c0,0.1,0,0.2-0.1,0.2c-0.3,0-0.6,0.1-0.6,0.1s-0.1,0.1-0.1,0.2
			c0,0,0,0.1,0,0.1c0,0.1,0.1,0.2,0.2,0.5c0.2,0.4,0.5,1,0.9,1.9l0.9,1.8c0.5-0.9,0.9-1.7,1.2-2.4l-0.5-1.2c0-0.1-0.1-0.3-0.2-0.5
			c-0.1-0.2-0.1-0.3-0.2-0.4c0,0-0.2-0.1-0.5-0.2s-0.4-0.1-0.5-0.2l0-0.1c0,0,0-0.1,0-0.1c0.1,0,0.2,0,0.3,0l0.4,0h0.9l0.3,0l0.9,0
			c0.1,0,0.1,0,0.2,0h0.1c0,0,0.1,0,0.1,0l0,0.2c-0.1,0-0.2,0.1-0.4,0.1c-0.3,0-0.6,0.1-0.7,0.2c-0.1,0.1-0.1,0.1-0.1,0.2
			c0,0.1,0,0.2,0.1,0.4c0,0,0.1,0.2,0.2,0.5l0.8,2.1c0.2,0.6,0.4,1,0.5,1.3c0.2-0.4,0.5-1.1,0.9-2c0.1-0.3,0.3-0.8,0.5-1.2
			c0.1-0.3,0.2-0.6,0.2-0.8c0-0.1,0-0.2-0.1-0.3c-0.1-0.1-0.3-0.2-0.6-0.2c-0.2,0-0.3-0.1-0.4-0.1c0,0,0-0.1,0-0.1
			c0,0,0-0.1,0.1-0.1h0.1l0.6,0c0,0,0.1,0,0.3,0c0.2,0,0.4,0,0.6,0c0.1,0,0.3,0,0.5,0h0.4c0,0,0,0,0.1,0c0,0,0,0,0,0.1
			c0,0.1,0,0.1,0,0.2c-0.2,0-0.4,0.1-0.6,0.2c-0.1,0.1-0.3,0.3-0.6,0.7l-1.3,3.2c-0.1,0.3-0.3,0.7-0.6,1.4c-0.1,0.1-0.1,0.2-0.1,0.3
			c0,0.1-0.1,0.1-0.1,0.2c0,0-0.1,0-0.1,0c0,0-0.1,0-0.1,0c-0.1-0.3-0.4-1-0.9-2.2c-0.1-0.3-0.2-0.6-0.4-0.8
			c-0.8,1.7-1.3,2.7-1.6,3.1c-0.1,0-0.1,0-0.2,0c0,0-0.1,0-0.2,0l-1.4-2.9l-1.3-2.5c-0.1-0.2-0.2-0.2-0.2-0.3
			c-0.1-0.1-0.2-0.1-0.4-0.1c-0.1,0-0.2,0-0.3,0c0-0.1,0-0.1,0-0.2C97.6,44.5,97.6,44.4,97.6,44.4z"/>
		<path class="st15" d="M108.4,46.9h0.1l0.6,0l1,0l0.7,0l0.4,0c0.3,0,0.6,0,0.8,0.1l0,0.6c-0.3,0-0.5,0-0.7,0c-0.2,0-0.3,0-0.5,0
			c-0.2,0-0.4,0-0.4,0l-0.3,0c-0.1,0-0.2,0-0.3,0c-0.6,0-1,0-1.3-0.1l0-0.2C108.4,47.2,108.4,47.1,108.4,46.9z"/>
		<path class="st15" d="M122.3,41.3l0.1,1.1c0,0.3,0,0.6,0,0.7l-0.2,0c-0.3-0.7-0.7-1.3-1.2-1.7c-0.5-0.4-1.1-0.6-1.8-0.6
			c-0.9,0-1.5,0.1-2,0.3c-0.7,0.3-1.3,0.8-1.8,1.6c-0.5,0.7-0.7,1.6-0.7,2.7c0,0.6,0.1,1.1,0.3,1.6c0.2,0.5,0.4,0.9,0.8,1.3
			c0.3,0.4,0.7,0.8,1.2,1.1c0.3,0.2,0.6,0.4,1.1,0.5c0.2,0.1,0.6,0.1,1,0.1c0.3,0,0.6,0,1-0.1c0.4-0.1,0.6-0.2,0.8-0.3
			c0.2-0.1,0.3-0.3,0.4-0.5c0.1-0.2,0.1-0.5,0.1-1c0-0.8-0.1-1.3-0.2-1.5c-0.1-0.1-0.5-0.2-1.1-0.3l-0.3,0l-0.2,0c0,0-0.1,0-0.1,0
			l-0.1-0.2c0,0,0-0.1,0.1-0.1c0.3,0,0.8-0.1,1.7-0.1c0.2,0,0.5,0,0.9,0l0.8,0l0.7,0c0.1,0,0.3,0,0.5,0c0,0,0.1,0,0.1,0s0,0,0,0.1
			c0,0.1,0,0.1,0,0.2c-0.2,0-0.4,0.1-0.5,0.1l-0.5,0c-0.2,0-0.3,0.1-0.4,0.2c0,0.1-0.1,0.2-0.1,0.6l0,1c0,0.7,0,1.1-0.1,1.3
			c0,0.1-0.1,0.2-0.2,0.3s-0.3,0.2-0.6,0.3c-0.4,0.2-0.8,0.3-1.2,0.3c-0.6,0.1-1.3,0.2-1.9,0.2c-1,0-1.8-0.1-2.4-0.4
			c-0.6-0.2-1.2-0.6-1.6-1s-0.8-0.9-1-1.3c-0.3-0.7-0.4-1.3-0.4-2c0-0.9,0.2-1.7,0.7-2.5c0.5-0.8,1.2-1.5,2.2-2
			c0.7-0.4,1.7-0.5,2.9-0.5c0.8,0,1.5,0.1,2.1,0.2C121.6,40.9,122,41.1,122.3,41.3z"/>
		<path class="st15" d="M129.9,46.3l-2.9,0h-0.6c-0.2,0-0.5,0-0.7,0c0,0.1-0.1,0.2-0.1,0.3l0,0.1v0.1l0,0.4c0,0.3,0.1,0.7,0.3,1.1
			s0.5,0.8,0.8,1c0.4,0.2,0.8,0.3,1.3,0.4c0.3,0,0.5,0,0.7-0.1c0.2-0.1,0.4-0.2,0.7-0.4l0.5-0.4l0,0.3c0,0,0,0.1,0,0.1
			c-0.2,0.3-0.5,0.5-0.8,0.7c-0.3,0.2-0.7,0.4-1,0.5c-0.2,0-0.4,0.1-0.8,0.1c-0.3,0-0.7-0.1-1-0.2c-0.5-0.2-0.9-0.6-1.2-1
			c-0.3-0.5-0.4-1.1-0.4-1.7c0-0.2,0-0.5,0.1-0.8s0.2-0.7,0.4-1.1c0.1-0.3,0.3-0.5,0.5-0.6c0.3-0.2,0.6-0.4,0.8-0.5
			c0.3-0.1,0.7-0.2,1.1-0.2c0.5,0,0.8,0.1,1.1,0.3c0.4,0.2,0.7,0.5,0.9,0.9c0.2,0.3,0.3,0.7,0.3,1V46.3z M125.8,46h0.3
			c0.3,0,1,0,2.2-0.1c0.2,0,0.3,0,0.4-0.1c0.1-0.1,0.1-0.2,0.1-0.3c0-0.2,0-0.3-0.1-0.5c-0.1-0.2-0.2-0.3-0.5-0.4
			c-0.2-0.1-0.4-0.2-0.7-0.2c-0.6,0-1,0.2-1.4,0.6C126,45.5,125.8,45.8,125.8,46z"/>
		<path class="st15" d="M130.7,49.9c0.1,0,0.3-0.1,0.4-0.1c0.3,0,0.5-0.1,0.6-0.2c0.1-0.1,0.1-0.2,0.1-0.4l0-0.3c0-0.1,0-0.2,0-0.4
			l0-2.2c0-0.3,0-0.5-0.1-0.6c-0.1-0.1-0.4-0.2-0.7-0.3v-0.3c0.4-0.1,0.6-0.2,0.8-0.4c0.3-0.2,0.5-0.5,0.7-0.9l0.3,0
			c0,0.2,0,0.4,0,0.5V45l0,0.1c0.1,0,0.1-0.1,0.2-0.1c0.3-0.2,0.6-0.4,0.9-0.5s0.6-0.2,0.8-0.3c0.2,0,0.3-0.1,0.5-0.1
			c0.4,0,0.7,0.1,1,0.3c0.3,0.2,0.5,0.5,0.6,0.8c0.1,0.3,0.1,0.9,0.1,1.7V48c0,0,0,0.1,0,0.3c0,0.2,0,0.4,0,0.6c0,0.3,0,0.6,0,0.7
			c0,0.1,0.1,0.1,0.2,0.2c0.5,0.1,0.7,0.1,0.8,0.2V50c0,0.1,0,0.1,0,0.2h-0.1l-1,0l-1,0c-0.4,0-0.7,0-1,0l0-0.2c0,0,0-0.1,0.1-0.1
			c0.1-0.1,0.3-0.1,0.6-0.1c0.1,0,0.2,0,0.3,0c0.1,0,0.1-0.1,0.2-0.1c0.1-0.1,0.1-0.2,0.1-0.3c0,0,0-0.1,0-0.2c0-0.2,0-0.8,0-1.7
			v-0.4l0-0.6c0-0.6-0.1-1.1-0.4-1.3c-0.3-0.2-0.6-0.4-1-0.4c-0.3,0-0.6,0.1-1,0.2s-0.6,0.4-0.9,0.7c0,0.2,0,0.4,0,0.6l0,1.6
			c0,0.8,0,1.4,0,1.6c0,0.1,0,0.1,0.1,0.2c0,0,0.1,0.1,0.2,0.1c0.1,0,0.3,0.1,0.4,0.1c0.2,0,0.3,0.1,0.3,0.1c0.1,0,0.2,0.1,0.2,0.1
			l0,0.1h-0.8l-1.6,0c-0.4,0-0.6,0-0.7,0h-0.2l0-0.1C130.7,50.1,130.7,50,130.7,49.9z"/>
	</g>
	<g>
		<path class="st15" d="M80.3,66.8c0,0,0.1-0.1,0.1-0.1c0.1,0,0.2,0,0.4-0.1c0.5,0,0.8-0.1,0.9-0.1c0.1-0.1,0.1-0.2,0.1-0.4l0-0.5
			l0-1.9l0-0.9l0-1.8l0-2.1c0-0.5,0-0.8-0.1-0.8c-0.1-0.1-0.3-0.1-0.8-0.2c-0.2,0-0.4,0-0.5,0c-0.1,0-0.1-0.1-0.1-0.1
			c0,0,0-0.1,0-0.1c0,0,0.1,0,0.1,0c0.1,0,0.2,0,0.3,0c0.3,0,0.6,0,0.9,0l0.5,0l1.3,0c0.6,0,1.2,0,1.5,0c0.4,0,0.6,0,0.7,0
			c0.1,0,0.4,0,0.8,0l1,0l0.1,0l0.6,0l0.1,0c0,0,0,0.1,0.1,0.1c0,0.1,0,0.2,0,0.3c0,0.1,0,0.2,0,0.3c0,0.5,0,0.9,0.1,1.3
			c0,0,0,0,0,0.1c-0.1,0-0.1,0-0.1,0c-0.1-0.1-0.1-0.3-0.2-0.5c-0.1-0.2-0.2-0.5-0.4-0.8c-0.1-0.2-0.2-0.3-0.3-0.4s-0.2-0.1-0.4-0.1
			c0,0-0.3,0-0.7,0c-0.1,0-0.2,0-0.3,0l-2.1,0h-0.2c-0.3,0-0.4,0-0.5,0.1c-0.1,0.1-0.1,0.5-0.1,1c0,0.1,0,0.6,0,1.8v1
			c0.1,0,0.1,0,0.2,0h0.1c0.1,0,0.2,0,0.4,0c0.3,0,0.4,0,0.5,0c0.1,0,0.1,0,0.2,0c0.5,0,1.2,0,2,0c0.3,0,0.4-0.1,0.5-0.2
			C87,61.6,87,61.4,87,61c0-0.4,0.1-0.6,0.2-0.6c0.1,0,0.1,0,0.2,0c0,0,0,0.1,0,0.1c0,0,0,0.1,0,0.2c0,0.2,0,0.8,0,1.7
			c0,0.3,0,0.5,0,0.9c0,0.3,0,0.5,0,0.5c0,0,0,0.1,0,0.2c0,0-0.1,0-0.1,0h-0.1c-0.1-0.1-0.2-0.4-0.2-0.6c-0.1-0.5-0.3-0.8-0.4-0.9
			s-0.4-0.2-0.7-0.2c-0.1,0-0.2,0-0.4,0s-0.5,0-0.8,0h-0.5c-0.7,0-1.1,0-1.3,0l0,0.2l0,1.4l0,0.9l0,0.8c0,0.5,0,0.8,0.1,0.9
			c0.1,0.1,0.3,0.2,0.5,0.2l0.4,0c0,0,0.2,0,0.5,0c0.3,0,0.6,0,1,0c0.9,0,1.6,0,1.9-0.1c0.3-0.1,0.6-0.2,0.8-0.4
			c0.2-0.2,0.5-0.7,0.8-1.3c0.1-0.2,0.2-0.3,0.3-0.3c0,0,0.1,0,0.1,0.1c-0.1,0.5-0.2,0.8-0.2,1c-0.1,0.3-0.1,0.7-0.1,1.1
			c0,0.2,0,0.3-0.1,0.4h-0.2l-2.1,0l-0.9,0l-2.2,0h-0.9c-0.1,0-0.2,0-0.3,0c-0.9,0-1.5,0.1-1.9,0.1c-0.1,0-0.1,0-0.2,0
			C80.3,66.9,80.3,66.9,80.3,66.8L80.3,66.8z"/>
		<path class="st15" d="M95.2,61.5l0-0.2l0-0.9l0-1.6c0-0.5,0-0.7-0.1-0.9c-0.1-0.1-0.4-0.2-0.9-0.4c0,0-0.1,0-0.2,0v-0.1
			c0,0,0-0.1,0-0.2c0.7-0.1,1.2-0.2,1.7-0.3l0.4,0c0,0.3,0,0.7,0,1.1l0,2.8l0.1,3.2l0,1.7c0,0.3,0,0.5,0.1,0.6
			c0.1,0.1,0.3,0.1,0.6,0.2c0.1,0,0.2,0,0.3,0v0.1c0,0,0,0.1,0,0.1c-0.2,0-0.3,0.1-0.5,0.1l-1.1,0.2c-0.2,0-0.3,0-0.4,0v-0.7
			c-0.1,0-0.2,0.1-0.4,0.1c-0.8,0.3-1.5,0.5-2.1,0.5c-0.4,0-0.8-0.1-1.2-0.4c-0.4-0.3-0.7-0.6-0.9-1.1c-0.2-0.5-0.3-0.9-0.3-1.4
			c0-0.4,0.1-0.8,0.2-1.2c0.1-0.4,0.3-0.7,0.6-1c0.1-0.2,0.4-0.3,0.6-0.5c0.3-0.2,0.5-0.3,0.7-0.3c0.4-0.1,0.7-0.2,0.9-0.2
			c0.7,0,1.2,0.1,1.6,0.3C95,61.5,95.1,61.5,95.2,61.5z M95.2,66.1c0-0.3,0-1,0-2c0-0.9,0-1.4-0.1-1.6c-0.1-0.2-0.3-0.4-0.6-0.6
			c-0.3-0.2-0.7-0.3-1.1-0.3c-0.6,0-1,0.2-1.4,0.7c-0.4,0.4-0.6,1.1-0.6,1.9c0,0.8,0.2,1.3,0.6,1.8c0.4,0.4,0.9,0.7,1.6,0.7
			c0.4,0,0.7,0,1-0.1C94.9,66.3,95.1,66.2,95.2,66.1z"/>
		<path class="st15" d="M97.6,61.1h0.5l0.2,0l0.2,0c0.5,0,0.8,0,0.9,0l0,0.1c0,0.7,0,1.4,0,2c0,0.4,0,0.6,0,0.7c0,0.9,0,1.4,0.1,1.6
			c0.1,0.2,0.2,0.4,0.4,0.5c0.2,0.1,0.5,0.2,0.8,0.2c0.4,0,0.7-0.1,1-0.2c0.3-0.2,0.6-0.3,0.8-0.5c0-0.2,0-0.4,0-0.6
			c0-0.7,0-1.2,0-1.5c0-0.2,0-0.3,0-0.4c0-0.8,0-1.2-0.1-1.3s-0.4-0.2-0.9-0.2c-0.2,0-0.3,0-0.4-0.1c0-0.1-0.1-0.1-0.1-0.1l0-0.1
			c0.1,0,0.3,0,0.4,0l1.2,0c0.4,0,0.6,0,0.7,0c0.1,0,0.1,0,0.2,0l0,0.5c0,0.7-0.1,1.7-0.1,2.8l0,0.6l0,1c0,0.1,0.1,0.1,0.1,0.1
			c0.1,0,0.2,0,0.4,0h0.1c0.1,0,0.2,0,0.5,0c0,0.1,0,0.1,0,0.1v0.1c-0.7,0.1-1.2,0.3-1.6,0.4c-0.2,0.1-0.3,0.1-0.4,0.1
			c0-0.2,0-0.3,0-0.3v-0.6c0,0,0-0.1,0-0.2c-0.1,0-0.1,0.1-0.2,0.2c-0.4,0.3-0.8,0.6-1.2,0.8c-0.3,0.1-0.6,0.2-0.8,0.2
			c-0.5,0-0.9-0.2-1.3-0.6c-0.3-0.4-0.5-1-0.5-2c0,0,0-0.1,0-0.3c0-0.2,0-0.4,0-0.5c0,0,0-0.1,0-0.3c0-0.1,0-0.1,0-0.2
			c0,0,0-0.1,0-0.3s0-0.3,0-0.3c0-0.1,0-0.2,0-0.2l0-0.4l0-0.2c0-0.1,0-0.1-0.1-0.2c-0.3-0.1-0.5-0.1-0.6-0.1c-0.1,0-0.2,0-0.3-0.1
			V61.1z"/>
		<path class="st15" d="M108.6,57.9l0-0.4c0.8,0,1.3,0,1.7-0.1c0.1,0,0.2,0,0.3,0c0,0,0.1,0,0.2,0c0.2,0.2,0.4,0.4,0.6,0.6
			c0,0,0.1,0.1,0.1,0.1l1.6,1.7l0.2,0.3c0.3,0.4,0.6,0.7,0.9,0.9s0.8,0.8,1.5,1.6l1.8,1.9c0.2,0.2,0.4,0.4,0.7,0.7l0-0.1
			c0-0.7,0-1,0-1.1l0-0.4l0-0.7v-0.3c0-0.2,0-0.8-0.1-1.9c0-0.1,0-0.4-0.1-0.8s-0.1-0.7-0.1-1c0-0.5,0-0.9-0.1-0.9
			c0-0.1-0.3-0.1-0.6-0.2c-0.1,0-0.2,0-0.4,0c-0.2,0-0.4,0-0.4,0c0,0-0.1-0.1-0.1-0.1c0-0.1,0-0.2,0.1-0.2c0.1,0,0.3-0.1,0.4-0.1
			c0.1,0,0.3,0,0.5,0.1c0.2,0,0.4,0.1,0.5,0.1c0.2,0,0.6,0,1.1,0c0.3,0,0.5,0,0.6,0h0.1l0,0.2c-0.1,0-0.2,0.1-0.3,0.1
			c-0.1,0-0.3,0-0.4,0.1c-0.2,0.1-0.3,0.1-0.3,0.1c-0.1,0.1-0.2,0.3-0.2,0.4l0.1,2.3l0.1,1.1l0,0.3l0,1.5c0,1,0,1.9,0,2.6
			c0,0.2,0,0.5,0,1.1l-0.3,0c-0.2-0.2-0.8-0.8-1.8-1.9c-0.2-0.2-0.4-0.4-0.5-0.5l-0.6-0.7c-0.2-0.3-0.4-0.4-0.5-0.5
			c-0.1-0.1-0.1-0.1-0.2-0.2c-0.5-0.6-1.2-1.4-2.1-2.3c-0.2-0.2-0.6-0.6-1-1.1c-0.3-0.3-0.5-0.5-0.5-0.6c-0.1-0.1-0.2-0.2-0.3-0.3
			l0,0.3c0,1,0,2.3,0.1,4l0.1,2.4c0,0.2,0,0.4,0,0.6l0.3,0.1c0.5,0,0.9,0.1,1.4,0.2c0,0,0.1,0.1,0.1,0.1l0,0.3c-0.1,0-0.1,0-0.2,0
			c-0.1,0-0.1,0-0.2,0c-0.5,0-1.1-0.1-1.8-0.1c-0.5,0-0.9,0-1.3,0l-0.1,0c0,0-0.1,0-0.2,0l0-0.2l0.2-0.1l0.3-0.1
			c0.3,0,0.5-0.1,0.7-0.1c0.1,0,0.2-0.1,0.2-0.2c0.1-0.3,0.1-0.8,0.1-1.5c0-0.3,0-0.9,0-1.7v-1l0-2.1c0-0.9,0-1.5-0.1-1.6
			c0-0.1-0.1-0.2-0.2-0.2c-0.2-0.1-0.4-0.2-0.7-0.3C108.9,57.9,108.7,57.9,108.6,57.9z"/>
		<path class="st15" d="M125.9,63l-2.9,0h-0.6c-0.2,0-0.5,0-0.7,0c0,0.1-0.1,0.2-0.1,0.3l0,0.1v0.1l0,0.4c0,0.3,0.1,0.7,0.3,1.1
			s0.5,0.8,0.8,1c0.4,0.2,0.8,0.3,1.3,0.4c0.3,0,0.5,0,0.7-0.1c0.2-0.1,0.4-0.2,0.7-0.4l0.5-0.4l0,0.3c0,0,0,0.1,0,0.1
			c-0.2,0.3-0.5,0.5-0.8,0.7c-0.3,0.2-0.7,0.4-1,0.5c-0.2,0-0.4,0.1-0.8,0.1c-0.3,0-0.7-0.1-1-0.2c-0.5-0.2-0.9-0.6-1.2-1
			c-0.3-0.5-0.4-1.1-0.4-1.7c0-0.2,0-0.5,0.1-0.8s0.2-0.7,0.4-1.1c0.1-0.3,0.3-0.5,0.5-0.6c0.3-0.2,0.6-0.4,0.8-0.5
			c0.3-0.1,0.7-0.2,1.1-0.2c0.5,0,0.8,0.1,1.1,0.3c0.4,0.2,0.7,0.5,0.9,0.9c0.2,0.3,0.3,0.7,0.3,1V63z M121.8,62.7h0.3
			c0.3,0,1,0,2.2-0.1c0.2,0,0.3,0,0.4-0.1c0.1-0.1,0.1-0.2,0.1-0.3c0-0.2,0-0.3-0.1-0.5c-0.1-0.2-0.2-0.3-0.5-0.4
			c-0.2-0.1-0.4-0.2-0.7-0.2c-0.6,0-1,0.2-1.4,0.6C121.9,62.1,121.8,62.4,121.8,62.7z"/>
		<path class="st15" d="M128.4,59.6l0.2,0l0,0.7l0,0.9c0.1,0,0.2,0,0.2,0c0.1,0,0.4,0,0.7,0c0.2,0,0.5,0,0.7,0c0.1,0,0.2,0,0.4,0
			c0,0.1,0,0.2,0,0.2c0,0.1,0,0.2,0,0.3h-0.1l-1.1,0l-0.6,0l-0.1,0c0,0.1-0.1,0.3-0.1,0.4l0,1.1l0,1.9c0,0.5,0.1,0.8,0.2,1
			c0.1,0.2,0.3,0.3,0.6,0.3c0.1,0,0.4,0,0.7-0.1c0.1,0,0.3-0.1,0.4-0.2h0.1c0,0,0.1,0,0.1,0s0,0.1,0,0.1l0,0.1
			c-0.2,0.2-0.5,0.4-0.7,0.5c-0.3,0.1-0.6,0.2-1.1,0.2c-0.3,0-0.6-0.1-0.8-0.2c-0.2-0.1-0.3-0.3-0.4-0.5s-0.1-0.6-0.1-1.3l0-1.7
			l0-0.8v-0.3c0-0.1,0-0.3,0-0.4l-0.1,0l-0.6,0l-0.1,0c-0.1,0-0.1,0-0.1,0c0,0,0-0.1,0-0.1c0-0.1,0-0.1,0.1-0.1s0.1-0.1,0.3-0.2
			c0.1-0.1,0.3-0.2,0.4-0.3c0.2-0.2,0.3-0.3,0.4-0.5c0.1-0.1,0.1-0.3,0.3-0.6C128.3,59.8,128.4,59.7,128.4,59.6z"/>
		<path class="st15" d="M130.6,61.1l2.8,0c0.1,0,0.1,0,0.1,0s0,0,0,0.1c0,0.1,0,0.2-0.1,0.2c-0.3,0-0.6,0.1-0.6,0.1
			s-0.1,0.1-0.1,0.2c0,0,0,0.1,0,0.1c0,0.1,0.1,0.2,0.2,0.5c0.2,0.4,0.5,1,0.9,1.9l0.9,1.8c0.5-0.9,0.9-1.7,1.2-2.4l-0.5-1.2
			c0-0.1-0.1-0.3-0.2-0.5c-0.1-0.2-0.1-0.3-0.2-0.4c0,0-0.2-0.1-0.5-0.2c-0.3-0.1-0.4-0.1-0.5-0.2l0-0.1c0,0,0-0.1,0-0.1
			c0.1,0,0.2,0,0.3,0l0.4,0h0.9l0.3,0l0.9,0c0.1,0,0.1,0,0.2,0h0.1c0,0,0.1,0,0.1,0l0,0.2c-0.1,0-0.2,0.1-0.4,0.1
			c-0.3,0-0.6,0.1-0.7,0.2c-0.1,0.1-0.1,0.1-0.1,0.2c0,0.1,0,0.2,0.1,0.4c0,0,0.1,0.2,0.2,0.5l0.8,2.1c0.2,0.6,0.4,1,0.5,1.3
			c0.2-0.4,0.5-1.1,0.9-2c0.1-0.3,0.3-0.8,0.5-1.2c0.1-0.3,0.2-0.6,0.2-0.8c0-0.1,0-0.2-0.1-0.3c-0.1-0.1-0.3-0.2-0.6-0.2
			c-0.2,0-0.3-0.1-0.4-0.1c0,0,0-0.1,0-0.1c0,0,0-0.1,0.1-0.1h0.1l0.6,0c0,0,0.1,0,0.3,0c0.2,0,0.4,0,0.6,0c0.1,0,0.3,0,0.5,0h0.4
			c0,0,0,0,0.1,0c0,0,0,0,0,0.1c0,0.1,0,0.1,0,0.2c-0.2,0-0.4,0.1-0.6,0.2c-0.1,0.1-0.3,0.3-0.6,0.7l-1.3,3.2
			c-0.1,0.3-0.3,0.7-0.6,1.4c-0.1,0.1-0.1,0.2-0.1,0.3c0,0.1-0.1,0.1-0.1,0.2c0,0-0.1,0-0.1,0c0,0-0.1,0-0.1,0
			c-0.1-0.3-0.4-1-0.9-2.2c-0.1-0.3-0.2-0.6-0.4-0.8c-0.8,1.7-1.3,2.7-1.6,3.1c-0.1,0-0.1,0-0.2,0c0,0-0.1,0-0.2,0l-1.4-2.9
			l-1.3-2.5c-0.1-0.2-0.2-0.2-0.2-0.3c-0.1-0.1-0.2-0.1-0.4-0.1c-0.1,0-0.2,0-0.3,0c0-0.1,0-0.1,0-0.2
			C130.5,61.2,130.6,61.1,130.6,61.1z"/>
		<path class="st15" d="M140.9,63.9c0-0.3,0.1-0.7,0.2-1.1s0.4-0.7,0.6-1s0.6-0.5,0.9-0.7c0.4-0.2,1-0.3,1.6-0.3
			c0.9,0,1.7,0.3,2.3,0.9c0.6,0.6,0.9,1.4,0.9,2.3c0,0.8-0.3,1.5-1,2.1c-0.6,0.6-1.5,0.9-2.4,0.9c-0.6,0-1.2-0.2-1.7-0.5
			c-0.4-0.2-0.7-0.6-1-1.1C141,65.1,140.9,64.5,140.9,63.9z M144.2,66.8c0.4,0,0.7-0.1,1.1-0.3c0.3-0.2,0.6-0.5,0.8-1s0.3-1,0.3-1.5
			c0-0.4-0.1-0.8-0.2-1.3c-0.2-0.5-0.4-0.9-0.7-1.1s-0.7-0.4-1.2-0.4c-0.3,0-0.7,0.1-1,0.2s-0.6,0.4-0.9,0.9c-0.2,0.4-0.4,1-0.4,1.8
			c0,0.9,0.2,1.6,0.6,2C143,66.6,143.6,66.8,144.2,66.8z"/>
		<path class="st15" d="M148.4,66.9L148.4,66.9c0-0.1,0-0.2,0-0.3l0.4-0.1l0.6-0.1c0,0,0.1-0.1,0.1-0.1c0-0.1,0-0.3,0-0.6
			c0-1.7,0-2.6,0-2.9c0-0.3-0.1-0.4-0.1-0.5s-0.2-0.1-0.5-0.2c-0.2,0-0.3-0.1-0.4-0.1l0-0.2c0.5-0.2,0.9-0.4,1-0.5
			c0.2-0.2,0.5-0.5,0.6-0.9l0.3,0c0,0.2,0,0.8,0,1.6l0,0.1c0,0,0,0.1,0,0.1c0.2-0.3,0.4-0.7,0.7-0.9l0.2-0.2
			c0.1-0.1,0.1-0.1,0.2-0.2c0.3-0.2,0.6-0.3,0.8-0.3c0.2,0,0.4,0.1,0.5,0.2c0.1,0.1,0.2,0.3,0.2,0.5c0,0.2,0,0.3-0.1,0.4
			c-0.1,0.1-0.3,0.2-0.5,0.2c-0.1,0-0.2,0-0.5-0.1c-0.2-0.1-0.4-0.1-0.5-0.1c-0.1,0-0.2,0-0.3,0.1c-0.1,0.1-0.3,0.3-0.5,0.7
			c-0.2,0.3-0.2,0.5-0.2,0.7l0,1.2l0,1.5c0,0.2,0,0.3,0.1,0.3c0,0,0.1,0.1,0.1,0.1c0.5,0,0.8,0.1,0.9,0.1c0.1,0,0.1,0,0.2,0
			c0.2,0,0.4,0,0.4,0.1c0,0,0.1,0.1,0.1,0.1c0,0,0,0.1-0.1,0.1l-0.8,0l-0.3,0l-0.4,0H150l-0.4,0L148.4,66.9z"/>
		<path class="st15" d="M153.5,66.9l0-0.2c0,0,0.1,0,0.1-0.1s0.2,0,0.4,0c0.2,0,0.3-0.1,0.4-0.1c0.1-0.1,0.1-0.4,0.1-1l0-2.9l0-0.5
			c0,0,0-0.2,0-0.5c0-0.1,0-0.3,0-0.5l0-1.3l0-1.1c0-0.3,0-0.4-0.1-0.5s-0.3-0.1-0.8-0.2v-0.1c0,0,0-0.1,0-0.1
			c0.3-0.1,0.5-0.1,0.7-0.2c0.1,0,0.4-0.2,0.9-0.5h0.2c0,0.1,0,0.2,0,0.2v0.6l0,0.3l0,0.6l0,0.9l0,1.5l0,1.8v0.6c0,0.1,0,0.2,0,0.3
			l0.1,0c0.2,0,0.3-0.1,0.5-0.2c0.8-0.5,1.3-0.9,1.4-1.1c0.2-0.2,0.3-0.3,0.3-0.4c0-0.1,0-0.1-0.1-0.2c-0.1-0.1-0.3-0.1-0.5-0.2
			c-0.1,0-0.1,0-0.2,0c-0.1,0-0.2,0-0.2-0.1l0-0.1c0,0,0-0.1,0-0.1c0.8,0,1.4,0,2,0c0.3,0,0.7,0,1,0v0.1c0,0,0,0.1,0,0.1
			c-0.1,0-0.2,0-0.3,0.1c-0.3,0-0.5,0.1-0.7,0.2c-0.4,0.2-0.8,0.5-1.2,0.8c-0.2,0.2-0.4,0.4-0.6,0.5l-0.3,0.2c0,0,0.1,0.1,0.1,0.1
			c0,0,0.1,0.1,0.1,0.1c0.1,0.1,0.2,0.2,0.3,0.3c0.5,0.6,0.9,1,1.2,1.3c0.1,0.1,0.2,0.2,0.3,0.3c0.4,0.4,0.6,0.7,0.7,0.7
			c0.1,0.1,0.3,0.2,0.6,0.2c0.1,0,0.2,0,0.3,0.1c0,0.1,0,0.1,0,0.1l0,0.1c-0.3,0-0.6,0-0.8,0h-0.1l-2,0.1c-0.1,0-0.1,0-0.2,0
			c0,0-0.1,0-0.2,0c0,0,0-0.1,0-0.1v-0.1c0,0,0.1-0.1,0.1-0.1c0.5,0,0.8-0.1,0.8-0.1c0,0,0.1,0,0.1-0.1c0-0.1-0.1-0.2-0.2-0.4
			s-0.5-0.6-1.1-1.2c-0.4-0.4-0.6-0.6-0.7-0.7s-0.3-0.1-0.4-0.1h-0.3c0,0.2,0,0.6,0,1.2c0,0.6,0,1,0.1,1.1c0.1,0.1,0.2,0.2,0.4,0.2
			c0.2,0,0.3,0.1,0.4,0.1c0,0,0.1,0.1,0.1,0.2c-0.3,0-0.5,0-0.7,0c-0.3,0-0.7,0-1.1,0c-0.2,0-0.4,0-0.5,0
			C153.9,66.9,153.7,66.9,153.5,66.9z"/>
	</g>
</g>
</svg>
